#N canvas 596 137 577 598 10;
#X obj 43 -1 cnv 15 400 200 empty empty empty 20 12 0 14 -191407 -66577
0;
#X obj 32 -11 grid grid1 400 0 199 200 0 100 1 1 1 200 100 130 49;
#X floatatom 323 189 5 0 0 0 - - ex;
#N canvas 474 134 951 491 resources 0;
#X obj 228 63 bng 15 250 50 0 empty empty empty 17 7 0 10 -262144 -1
-1;
#X obj 273 63 bng 15 250 50 0 empty empty empty 17 7 0 10 -262144 -1
-1;
#X obj 228 146 mtof;
#X obj 273 146 mtof;
#X obj 228 9 r ex;
#X obj 318 63 bng 15 250 50 0 empty empty empty 17 7 0 10 -262144 -1
-1;
#X obj 363 63 bng 15 250 50 0 empty empty empty 17 7 0 10 -262144 -1
-1;
#X obj 318 146 mtof;
#X obj 363 146 mtof;
#X obj 318 9 r ex;
#X obj 408 63 bng 15 250 50 0 empty empty empty 17 7 0 10 -262144 -1
-1;
#X obj 459 63 bng 15 250 50 0 empty empty empty 17 7 0 10 -262144 -1
-1;
#X obj 408 193 phasor~;
#X obj 408 146 mtof;
#X obj 459 146 mtof;
#X obj 408 9 r ex;
#X obj 508 63 bng 15 250 50 0 empty empty empty 17 7 0 10 -262144 -1
-1;
#X obj 559 63 bng 15 250 50 0 empty empty empty 17 7 0 10 -262144 -1
-1;
#X obj 508 193 phasor~;
#X obj 508 146 mtof;
#X obj 559 146 mtof;
#X obj 508 9 r ex;
#X obj 408 36 moses 125;
#X msg 228 89 40;
#X msg 273 88 42;
#X obj 318 193 phasor~;
#X obj 228 193 phasor~;
#X msg 318 89 56;
#X msg 408 89 71;
#X msg 459 88 73;
#X msg 363 88 57;
#X obj 67 270 complex-mod~;
#X obj 67 243 cos~;
#X obj 509 227 s~ clean;
#X obj 67 324 s~ dirty;
#X obj 67 297 *~ 0.25;
#X obj 609 58 metro 1000;
#X obj 609 85 random 10;
#X obj 609 139 bng 15 250 50 0 empty empty empty 17 7 0 10 -262144
-1 -1;
#X obj 648 139 bng 15 250 50 0 empty empty empty 17 7 0 10 -262144
-1 -1;
#X msg 648 162 0;
#X obj 582 210 *~ \$1;
#X msg 609 163 0.05;
#X obj 67 216 r~ clean;
#X obj 683 85 random 10;
#X obj 683 139 bng 15 250 50 0 empty empty empty 17 7 0 10 -262144
-1 -1;
#X obj 722 139 bng 15 250 50 0 empty empty empty 17 7 0 10 -262144
-1 -1;
#X msg 722 162 0;
#X obj 656 210 *~ \$1;
#X msg 683 163 0.05;
#X obj 757 85 random 10;
#X obj 757 139 bng 15 250 50 0 empty empty empty 17 7 0 10 -262144
-1 -1;
#X obj 796 139 bng 15 250 50 0 empty empty empty 17 7 0 10 -262144
-1 -1;
#X msg 796 162 0;
#X obj 730 210 *~ \$1;
#X msg 757 163 0.05;
#X obj 831 85 random 10;
#X obj 831 139 bng 15 250 50 0 empty empty empty 17 7 0 10 -262144
-1 -1;
#X obj 870 139 bng 15 250 50 0 empty empty empty 17 7 0 10 -262144
-1 -1;
#X msg 870 162 0;
#X obj 804 210 *~ \$1;
#X obj 683 58 metro 1250;
#X obj 757 58 metro 1500;
#X obj 831 58 metro 2000;
#X msg 559 88 90;
#X msg 508 89 85;
#X obj 228 116 +;
#X obj 273 116 +;
#X obj 318 116 +;
#X obj 363 116 +;
#X obj 408 116 +;
#X obj 459 116 +;
#X obj 508 116 +;
#X obj 559 116 +;
#X msg 132 99 0;
#X msg 171 99 5;
#X obj 132 -12 metro 5000;
#X msg 831 163 0.005;
#X msg 749 -30 \; pd dsp 1;
#X obj 132 15 random 100;
#X floatatom 159 46 5 0 0 0 - why -;
#X obj 132 72 moses;
#X obj 509 284 cnv 15 316 48 empty empty subpatches 0 -10 0 10 -228856
-1 0;
#N canvas 489 396 382 396 one 0;
#X obj 76 175 r~ clean;
#X obj 14 175 r~ dirty;
#X obj 141 192 *~ \$1;
#X obj 168 82 random 100;
#X msg 168 136 0;
#X obj 213 136 * 0.01;
#X floatatom 213 176 5 0 0 0 - - -;
#X obj 168 30 tgl 15 0 empty onoff empty 17 7 0 10 -262144 -1 -1 1
1;
#X floatatom 266 12 5 0 0 0 - extoo -;
#X floatatom 266 66 5 0 0 0 - whytoo -;
#X obj 168 109 moses;
#X obj 266 38 * 50;
#X obj 168 55 metro;
#X obj 266 92 - 25;
#X obj 141 246 s~ one;
#X connect 0 0 2 0;
#X connect 1 0 2 0;
#X connect 2 0 14 0;
#X connect 3 0 10 0;
#X connect 4 0 2 1;
#X connect 5 0 6 0;
#X connect 6 0 2 1;
#X connect 7 0 12 0;
#X connect 8 0 11 0;
#X connect 9 0 13 0;
#X connect 10 0 4 0;
#X connect 10 1 5 0;
#X connect 11 0 12 1;
#X connect 12 0 3 0;
#X connect 13 0 10 1;
#X restore 525 300 pd one;
#N canvas 772 263 333 368 two 0;
#X obj -151 176 r~ clean;
#X obj -213 176 r~ dirty;
#X obj -86 193 *~ \$1;
#X obj -59 83 random 100;
#X msg -59 137 0;
#X floatatom -14 177 5 0 0 0 - - -;
#X obj -59 31 tgl 15 0 empty onoff empty 17 7 0 10 -262144 -1 -1 1
1;
#X floatatom 39 13 5 0 0 0 - extoo -;
#X floatatom 39 67 5 0 0 0 - whytoo -;
#X obj -59 110 moses;
#X obj -59 56 metro;
#X obj 39 39 * 25;
#X obj 39 93 - 15;
#X obj -14 137 * 0.005;
#X obj -86 247 s~ two;
#X connect 0 0 2 0;
#X connect 1 0 2 0;
#X connect 2 0 14 0;
#X connect 3 0 9 0;
#X connect 4 0 2 1;
#X connect 5 0 2 1;
#X connect 6 0 10 0;
#X connect 7 0 11 0;
#X connect 8 0 12 0;
#X connect 9 0 4 0;
#X connect 9 1 13 0;
#X connect 10 0 3 0;
#X connect 11 0 10 1;
#X connect 12 0 9 1;
#X connect 13 0 5 0;
#X restore 575 300 pd two;
#N canvas 700 208 325 275 three 0;
#X obj 79 179 r~ clean;
#X obj 17 179 r~ dirty;
#X obj 144 196 *~ \$1;
#X obj 171 86 random 100;
#X msg 171 140 0;
#X floatatom 216 180 5 0 0 0 - - -;
#X obj 171 34 tgl 15 0 empty onoff empty 17 7 0 10 -262144 -1 -1 1
1;
#X floatatom 269 16 5 0 0 0 - extoo -;
#X floatatom 269 70 5 0 0 0 - whytoo -;
#X obj 171 113 moses;
#X obj 171 59 metro;
#X obj 144 223 s~ three;
#X obj 269 42 * 100;
#X obj 269 96 - 10;
#X obj 216 140 * 0.0125;
#X connect 0 0 2 0;
#X connect 1 0 2 0;
#X connect 2 0 11 0;
#X connect 3 0 9 0;
#X connect 4 0 2 1;
#X connect 5 0 2 1;
#X connect 6 0 10 0;
#X connect 7 0 12 0;
#X connect 8 0 13 0;
#X connect 9 0 4 0;
#X connect 9 1 14 0;
#X connect 10 0 3 0;
#X connect 12 0 10 1;
#X connect 13 0 9 1;
#X connect 14 0 5 0;
#X restore 626 300 pd three;
#N canvas 765 117 643 212 audio 1;
#X obj 506 26 r~ one;
#X obj 384 26 r~ two;
#X obj 256 26 r~ three;
#X obj 506 80 *~ 0.6;
#X obj 506 53 delwrite~ uno 1500;
#X obj 506 107 delread~ uno 500;
#X obj 384 53 delwrite~ dos 1250;
#X obj 384 107 delread~ dos 50;
#X obj 384 80 *~ 0.6;
#X obj 256 80 *~ 0.6;
#X obj 256 107 delread~ tres 750;
#X obj 256 53 delwrite~ tres 2500;
#X floatatom 196 108 5 0 0 0 - level -;
#X obj 116 161 dac~;
#X obj 16 97 catch~;
#X obj 116 124 *~ \$1;
#X obj 116 56 r~ clean;
#X floatatom 63 128 5 0 0 0 - euclidvol -;
#X obj 16 144 *~ \$2;
#X connect 0 0 4 0;
#X connect 0 0 15 0;
#X connect 1 0 6 0;
#X connect 1 0 15 0;
#X connect 2 0 11 0;
#X connect 2 0 15 0;
#X connect 3 0 4 0;
#X connect 5 0 3 0;
#X connect 5 0 15 0;
#X connect 7 0 8 0;
#X connect 7 0 15 0;
#X connect 8 0 6 0;
#X connect 9 0 11 0;
#X connect 10 0 9 0;
#X connect 10 0 15 0;
#X connect 12 0 15 1;
#X connect 14 0 18 0;
#X connect 15 0 13 0;
#X connect 15 0 13 1;
#X connect 16 0 15 0;
#X connect 17 0 18 1;
#X connect 18 0 13 0;
#X connect 18 0 13 1;
#X restore 689 300 pd audio;
#N canvas 155 284 932 474 euclid 0;
#X obj 79 230 select 1;
#X obj 79 176 % \$3;
#X obj 79 122 + \$2;
#X obj 79 149 * \$1;
#X obj 79 203 < \$1;
#X obj 79 23 tgl 15 0 empty euclidon empty 17 7 0 10 -262144 -1 -1
1 1;
#X obj 79 95 f;
#X obj 111 95 + 1;
#X obj 29 262 bng 15 250 50 0 empty empty empty 17 7 0 10 -262144 -1
-1;
#X floatatom 157 133 5 0 0 1 hits beats -;
#X floatatom 157 106 5 0 0 1 offset offset -;
#X floatatom 157 160 5 0 0 1 length - -;
#X obj 74 262 bng 15 250 50 0 empty empty empty 17 7 0 10 -262144 -1
-1;
#X obj 44 364 line~;
#X obj 542 267 *~;
#X floatatom 240 117 5 0 0 0 - length -;
#X obj 240 143 int;
#X obj 542 115 r fund;
#X floatatom 542 142 5 0 0 0 - - -;
#X obj 542 294 throw~;
#X floatatom 542 195 5 0 0 0 - - -;
#X msg 29 317 1 1;
#X obj 79 68 metro;
#X floatatom 143 35 5 0 0 0 - tempo -;
#X obj 143 51 expr 60000/$f1;
#X obj 44 397 s~ euclid;
#X obj 601 221 r~ euclid;
#X obj 119 262 bng 15 250 50 0 empty empty empty 17 7 0 10 -262144
-1 -1;
#X obj 164 262 bng 15 250 50 0 empty empty empty 17 7 0 10 -262144
-1 -1;
#X obj 134 364 line~;
#X obj 134 397 s~ dilcue;
#X msg 164 317 1 1;
#X obj 542 370 *~;
#X obj 593 322 r~ dilcue;
#X msg 119 317 0 1;
#X obj 299 220 select 1;
#X obj 299 166 % \$3;
#X obj 299 112 + \$2;
#X obj 299 139 * \$1;
#X obj 299 193 < \$1;
#X obj 299 85 f;
#X obj 331 85 + 1;
#X obj 249 282 bng 15 250 50 0 empty empty empty 17 7 0 10 -262144
-1 -1;
#X floatatom 377 123 5 0 0 1 hits beats -;
#X floatatom 377 96 5 0 0 1 offset offset -;
#X floatatom 377 150 5 0 0 1 length - -;
#X obj 294 282 bng 15 250 50 0 empty empty empty 17 7 0 10 -262144
-1 -1;
#X obj 264 384 line~;
#X floatatom 460 107 5 0 0 0 - length -;
#X obj 460 133 int;
#X msg 249 337 1 1;
#X obj 339 282 bng 15 250 50 0 empty empty empty 17 7 0 10 -262144
-1 -1;
#X obj 384 282 bng 15 250 50 0 empty empty empty 17 7 0 10 -262144
-1 -1;
#X obj 354 384 line~;
#X obj 264 417 s~ eucliddel;
#X obj 354 417 s~ dilcuedel;
#X obj 682 267 *~;
#X obj 682 115 r fund;
#X floatatom 682 142 5 0 0 0 - - -;
#X obj 682 294 throw~;
#X floatatom 682 195 5 0 0 0 - - -;
#X obj 741 221 r~ eucliddel;
#X obj 682 370 *~;
#X obj 682 424 throw~;
#X obj 733 322 r~ dilcuedel;
#X msg 384 337 1 1;
#X obj 682 397 lop~ 400;
#X obj 289 247 delay 20;
#X obj 542 424 throw~;
#X obj 542 397 lop~ 2000;
#X obj 119 288 delay 1;
#X obj 344 247 delay 0;
#X obj 682 322 pink~;
#X obj 542 322 pink~;
#X obj 542 168 / 2;
#X obj 542 221 osc~;
#X obj 682 221 osc~;
#X obj 682 168 / 4;
#X obj 339 308 delay 10;
#X msg 339 337 0 1;
#X msg 74 317 0 100;
#X obj 29 288 delay 500;
#X msg 294 337 0 100;
#X obj 249 308 delay 500;
#X connect 0 0 8 0;
#X connect 0 0 27 0;
#X connect 0 1 12 0;
#X connect 0 1 28 0;
#X connect 1 0 4 0;
#X connect 2 0 3 0;
#X connect 3 0 1 0;
#X connect 4 0 0 0;
#X connect 5 0 22 0;
#X connect 6 0 7 0;
#X connect 6 0 2 0;
#X connect 7 0 6 1;
#X connect 8 0 21 0;
#X connect 8 0 81 0;
#X connect 9 0 3 1;
#X connect 9 0 4 1;
#X connect 10 0 2 1;
#X connect 11 0 1 1;
#X connect 12 0 80 0;
#X connect 13 0 25 0;
#X connect 14 0 19 0;
#X connect 15 0 16 0;
#X connect 16 0 11 0;
#X connect 17 0 18 0;
#X connect 18 0 74 0;
#X connect 20 0 75 0;
#X connect 21 0 13 0;
#X connect 22 0 6 0;
#X connect 22 0 40 0;
#X connect 23 0 24 0;
#X connect 24 0 22 1;
#X connect 26 0 14 1;
#X connect 27 0 34 0;
#X connect 28 0 31 0;
#X connect 28 0 70 0;
#X connect 29 0 30 0;
#X connect 31 0 29 0;
#X connect 32 0 69 0;
#X connect 33 0 32 1;
#X connect 34 0 29 0;
#X connect 35 0 67 0;
#X connect 35 1 71 0;
#X connect 36 0 39 0;
#X connect 37 0 38 0;
#X connect 38 0 36 0;
#X connect 39 0 35 0;
#X connect 40 0 41 0;
#X connect 40 0 37 0;
#X connect 41 0 40 1;
#X connect 42 0 50 0;
#X connect 42 0 83 0;
#X connect 43 0 38 1;
#X connect 43 0 39 1;
#X connect 44 0 37 1;
#X connect 45 0 36 1;
#X connect 46 0 82 0;
#X connect 47 0 54 0;
#X connect 48 0 49 0;
#X connect 49 0 45 0;
#X connect 50 0 47 0;
#X connect 51 0 79 0;
#X connect 52 0 65 0;
#X connect 52 0 78 0;
#X connect 53 0 55 0;
#X connect 56 0 59 0;
#X connect 57 0 58 0;
#X connect 58 0 77 0;
#X connect 60 0 76 0;
#X connect 61 0 56 1;
#X connect 62 0 66 0;
#X connect 64 0 62 1;
#X connect 65 0 53 0;
#X connect 66 0 63 0;
#X connect 67 0 42 0;
#X connect 67 0 51 0;
#X connect 69 0 68 0;
#X connect 70 0 34 0;
#X connect 71 0 52 0;
#X connect 71 0 46 0;
#X connect 72 0 62 0;
#X connect 73 0 32 0;
#X connect 74 0 20 0;
#X connect 75 0 14 0;
#X connect 76 0 56 0;
#X connect 77 0 60 0;
#X connect 78 0 79 0;
#X connect 79 0 53 0;
#X connect 80 0 13 0;
#X connect 81 0 80 0;
#X connect 82 0 47 0;
#X connect 83 0 82 0;
#X restore 752 300 pd euclid;
#X floatatom 136 244 5 0 0 0 - - -;
#X floatatom 136 163 5 0 0 0 - - -;
#X obj 136 189 s fund;
#X obj 136 217 * 2;
#X obj 609 -47 loadbang;
#X obj 132 -30 tgl 15 0 empty empty empty 17 7 0 10 -262144 -1 -1 1
1;
#X obj 228 36 moses 75;
#X obj 318 36 moses 100;
#X obj 508 36 moses 150;
#X obj 609 112 moses 5;
#X obj 683 112 moses 5;
#X obj 757 112 moses 5;
#X obj 831 112 moses 5;
#X connect 0 0 23 0;
#X connect 1 0 24 0;
#X connect 2 0 26 0;
#X connect 2 0 89 0;
#X connect 3 0 26 0;
#X connect 3 0 89 0;
#X connect 4 0 94 0;
#X connect 5 0 27 0;
#X connect 6 0 30 0;
#X connect 7 0 25 0;
#X connect 8 0 25 0;
#X connect 9 0 95 0;
#X connect 10 0 28 0;
#X connect 11 0 29 0;
#X connect 13 0 12 0;
#X connect 14 0 12 0;
#X connect 15 0 22 0;
#X connect 16 0 65 0;
#X connect 17 0 64 0;
#X connect 18 0 60 0;
#X connect 19 0 18 0;
#X connect 20 0 18 0;
#X connect 21 0 96 0;
#X connect 22 0 10 0;
#X connect 22 1 11 0;
#X connect 23 0 66 0;
#X connect 24 0 67 0;
#X connect 25 0 48 0;
#X connect 25 0 54 0;
#X connect 26 0 41 0;
#X connect 27 0 68 0;
#X connect 28 0 70 0;
#X connect 29 0 71 0;
#X connect 30 0 69 0;
#X connect 31 0 35 0;
#X connect 32 0 31 0;
#X connect 35 0 34 0;
#X connect 36 0 37 0;
#X connect 37 0 97 0;
#X connect 38 0 42 0;
#X connect 39 0 40 0;
#X connect 40 0 41 1;
#X connect 41 0 33 0;
#X connect 42 0 41 1;
#X connect 43 0 32 0;
#X connect 44 0 98 0;
#X connect 45 0 49 0;
#X connect 46 0 47 0;
#X connect 47 0 48 1;
#X connect 48 0 33 0;
#X connect 49 0 48 1;
#X connect 50 0 99 0;
#X connect 51 0 55 0;
#X connect 52 0 53 0;
#X connect 53 0 54 1;
#X connect 54 0 33 0;
#X connect 55 0 54 1;
#X connect 56 0 100 0;
#X connect 57 0 77 0;
#X connect 58 0 59 0;
#X connect 59 0 60 1;
#X connect 60 0 33 0;
#X connect 61 0 44 0;
#X connect 62 0 50 0;
#X connect 63 0 56 0;
#X connect 64 0 73 0;
#X connect 65 0 72 0;
#X connect 66 0 2 0;
#X connect 67 0 3 0;
#X connect 68 0 7 0;
#X connect 69 0 8 0;
#X connect 70 0 13 0;
#X connect 71 0 14 0;
#X connect 72 0 19 0;
#X connect 73 0 20 0;
#X connect 74 0 66 1;
#X connect 74 0 67 1;
#X connect 74 0 68 1;
#X connect 74 0 69 1;
#X connect 74 0 70 1;
#X connect 74 0 71 1;
#X connect 74 0 72 1;
#X connect 74 0 73 1;
#X connect 75 0 66 1;
#X connect 75 0 67 1;
#X connect 75 0 68 1;
#X connect 75 0 69 1;
#X connect 75 0 70 1;
#X connect 75 0 71 1;
#X connect 75 0 72 1;
#X connect 75 0 73 1;
#X connect 76 0 79 0;
#X connect 77 0 60 1;
#X connect 79 0 81 0;
#X connect 80 0 81 1;
#X connect 81 0 74 0;
#X connect 81 1 75 0;
#X connect 88 0 31 2;
#X connect 89 0 90 0;
#X connect 89 0 91 0;
#X connect 91 0 88 0;
#X connect 92 0 36 0;
#X connect 92 0 61 0;
#X connect 92 0 62 0;
#X connect 92 0 63 0;
#X connect 92 0 93 0;
#X connect 92 0 78 0;
#X connect 93 0 76 0;
#X connect 94 0 0 0;
#X connect 94 1 1 0;
#X connect 95 0 5 0;
#X connect 95 1 6 0;
#X connect 96 0 16 0;
#X connect 96 1 17 0;
#X connect 97 0 38 0;
#X connect 97 1 39 0;
#X connect 98 0 45 0;
#X connect 98 1 46 0;
#X connect 99 0 51 0;
#X connect 99 1 52 0;
#X connect 100 0 57 0;
#X connect 100 1 58 0;
#X restore 32 511 pd resources;
#X floatatom 366 189 5 0 0 0 - - why;
#X obj 42 229 cnv 15 400 80 empty empty empty 20 12 0 14 -191407 -66577
0;
#X obj 32 219 grid grid1 400 0 10 80 0 99 1 1 1 150 30 263 243;
#X floatatom 323 299 5 0 0 0 - - extoo;
#X floatatom 366 299 5 0 0 0 - - whytoo;
#X obj 464 229 cnv 15 80 80 empty empty empty 20 12 0 14 -191407 -66577
0;
#X obj 453 219 tgl 80 0 onoff null empty 17 7 0 10 -228856 -258113
-1 1 1;
#X obj 463 -1 cnv 15 80 200 empty empty empty 20 12 0 14 -191407 -66577
0;
#X obj 453 -9 vsl 60 195 0 1 0 0 level null empty 0 -9 0 10 -228856
-258113 -1 3900 1;
#X obj 42 340 cnv 15 400 80 empty empty empty 20 12 0 14 -191407 -66577
0;
#X obj 32 360 grid grid1 400 0 8 50 0 8 1 1 1 150 20 287 389;
#X floatatom 323 410 5 0 0 0 - - beats;
#X floatatom 366 410 5 0 0 0 - - offset;
#X obj 463 340 cnv 15 80 80 length null empty 20 12 0 14 -191407 -66577
0;
#X obj 453 330 cnv 15 80 80 empty empty empty 20 12 0 14 -1 -66577
0;
#X obj 454 331 cnv 15 78 78 empty empty empty 20 12 0 14 -228856 -66577
0;
#X obj 462 340 knob 60 60 2 16 1 0 length null empty 0 -8 0 8 -191407
-258113 -258113 5900 0;
#X obj 65 330 hsl 365 30 100 600 0 0 tempo null empty -2 -8 0 10 -245500
-258113 -1 24100 1;
#X obj 32 330 tgl 30 0 euclidon null empty 17 7 0 10 -228856 -258113
-1 1 1;
#X obj 513 -9 vsl 20 195 0 0.6 0 0 euclidvol null empty 0 -9 0 10 -228856
-258113 -1 19400 1;
#X text 30 438 Textures \, no. 3 (Rex);
#X text 30 465 An interactive and generative textural composition by
Christopher Noce;
#X connect 1 0 2 0;
#X connect 1 1 4 0;
#X connect 6 0 7 0;
#X connect 6 1 8 0;
#X connect 14 0 15 0;
#X connect 14 1 16 0;
